<svg xmlns="http://www.w3.org/2000/svg" version="1.1" xmlns:xlink="http://www.w3.org/1999/xlink" xmlns:svgjs="http://svgjs.dev/svgjs" width="1500" height="935" viewBox="0 0 1500 935"><g transform="matrix(1,0,0,1,-0.9090909090909918,0.3785425101214628)"><svg viewBox="0 0 396 247" data-background-color="#fffff5" preserveAspectRatio="xMidYMid meet" height="935" width="1500" xmlns="http://www.w3.org/2000/svg" xmlns:xlink="http://www.w3.org/1999/xlink"><g id="tight-bounds" transform="matrix(1,0,0,1,0.2400000000000091,-0.09999999999999432)"><svg viewBox="0 0 395.52 247.2" height="247.2" width="395.52"><g><svg></svg></g><g><svg viewBox="0 0 395.52 247.2" height="247.2" width="395.52"><mask id="9ef6431a-68f3-4931-9da7-7bed8727ad83"><rect width="395.52" height="247.2" fill="white"></rect><g transform="matrix(1,0,0,1,79.37934533410262,37.08)" id="clone"><svg viewBox="0 0 236.76130933179473 173.04" height="173.04" width="236.76130933179473"><g><svg viewBox="0 0 236.76130933179473 173.04" height="173.04" width="236.76130933179473"><g><svg viewBox="0 0 345.91789931034486 252.81847555918958" height="173.04" width="236.76130933179473"><g><svg viewBox="0 0 345.91789931034486 252.81847555918958" height="252.81847555918958" width="345.91789931034486"><g id="SvgjsG4581"><svg viewBox="0 0 345.91789931034486 252.81847555918958" height="252.81847555918958" width="345.91789931034486" id="SvgjsSvg4580"><g><svg viewBox="0 0 345.91789931034486 171.9706128" height="171.9706128" width="345.91789931034486"><g transform="matrix(1,0,0,1,0,0)"><svg width="345.91789931034486" viewBox="1.38 -34.25 73.91000000000001 37.25" height="171.9706128" data-palette-color="#091627"><path d="M19.79 0L4.38 0 4.38-31.25 19.79-31.25 19.79-27.71 8.33-27.71 8.33-21.04 17.36-21.04 17.36-17.5 8.33-17.5 8.33-3.54 19.79-3.54 19.79 0ZM30.31 0L26.35 0 26.35-31.25 34.2-31.25Q37.15-31.25 39.27-30.07 41.39-28.89 42.55-26.96 43.71-25.03 43.71-22.74L43.71-22.74Q43.71-20.17 42.25-18.13 40.8-16.08 38.26-15.1L38.26-15.1 48.75 0 44.13 0 34.2-14.38 30.31-14.38 30.31 0ZM30.31-27.71L30.31-17.71 34.2-17.71Q36.21-17.71 37.48-18.45 38.75-19.2 39.36-20.36 39.96-21.53 39.96-22.74L39.96-22.74Q39.96-24.93 38.38-26.32 36.8-27.71 34.2-27.71L34.2-27.71 30.31-27.71ZM57.29 0L53.33 0 53.33-31.25 61.07-31.25Q64.16-31.25 66.3-30.31 68.43-29.38 69.75-27.86 71.07-26.35 71.68-24.58 72.29-22.81 72.29-21.11L72.29-21.11Q72.29-19.44 71.7-17.67 71.11-15.9 69.79-14.38 68.47-12.85 66.31-11.91 64.16-10.97 61.07-10.97L61.07-10.97 57.29-10.97 57.29 0ZM57.29-27.71L57.29-14.51 60.86-14.51Q63.68-14.51 65.31-15.5 66.94-16.49 67.63-18 68.33-19.51 68.33-21.11L68.33-21.11Q68.33-22.64 67.65-24.17 66.97-25.69 65.36-26.7 63.75-27.71 60.86-27.71L60.86-27.71 57.29-27.71Z" opacity="1" transform="matrix(1,0,0,1,0,0)" fill="black" class="wordmark-text-0" id="SvgjsPath4579" stroke-width="5" stroke="black" stroke-linejoin="round"></path></svg></g></svg></g><g transform="matrix(1,0,0,1,2.5,193.6039228881269)"><svg viewBox="0 0 340.91789931034486 59.214552671062684" height="59.214552671062684" width="340.91789931034486"><g transform="matrix(1,0,0,1,0,0)"><svg width="340.91789931034486" viewBox="0.9100000000000001 -38.86 239.62 42.45" height="59.214552671062684" data-palette-color="#091627"><path d="M22.22 0L9.94 0Q7.42 0 6.12-0.63 4.81-1.27 4.36-2.71 3.91-4.15 3.91-6.54L3.91-6.54 3.91-28.47Q3.91-30.91 4.36-32.34 4.81-33.76 6.12-34.39 7.42-35.01 9.94-35.01L9.94-35.01 21.41-35.01Q22-35.01 22.29-34.81L22.29-34.81Q22.92-34.38 23.61-33.76 24.29-33.15 25.05-32.3L25.05-32.3Q25.29-31.98 25.29-31.79L25.29-31.79Q25.29-31.57 25.05-31.3L25.05-31.3Q24.29-30.44 23.61-29.83 22.92-29.22 22.29-28.78L22.29-28.78Q21.95-28.59 21.41-28.59L21.41-28.59 14.58-28.59Q12.96-28.59 12.38-27.91 11.79-27.22 11.79-25.56L11.79-25.56 11.79-20.83 20.56-20.83Q21.14-20.83 21.44-20.63L21.44-20.63Q22.07-20.19 22.75-19.58 23.44-18.97 24.19-18.12L24.19-18.12Q24.44-17.8 24.44-17.6L24.44-17.6Q24.44-17.38 24.19-17.11L24.19-17.11Q23.44-16.26 22.75-15.65 22.07-15.04 21.44-14.6L21.44-14.6Q21.09-14.4 20.56-14.4L20.56-14.4 11.79-14.4 11.79-9.47Q11.79-7.84 12.38-7.13 12.96-6.42 14.58-6.42L14.58-6.42 22.22-6.42Q22.8-6.42 23.1-6.23L23.1-6.23Q23.73-5.79 24.41-5.18 25.1-4.57 25.85-3.71L25.85-3.71Q26.1-3.39 26.1-3.2L26.1-3.2Q26.1-2.98 25.85-2.71L25.85-2.71Q25.1-1.86 24.41-1.25 23.73-0.63 23.1-0.2L23.1-0.2Q22.75 0 22.22 0L22.22 0ZM43.45-10.4L31.61-10.4Q30.86-10.4 30.86-11.16L30.86-11.16 30.86-15.53Q30.86-16.28 31.61-16.28L31.61-16.28 43.45-16.28Q44.21-16.28 44.21-15.53L44.21-15.53 44.21-11.16Q44.21-10.4 43.45-10.4L43.45-10.4ZM61.13 0.59L61.13 0.59Q58.03 0.59 55.99 0.02 53.95-0.54 52.72-1.38 51.48-2.22 50.83-3.05L50.83-3.05Q50.61-3.37 50.43-3.66 50.26-3.96 50.19-4.32L50.19-4.32Q50.09-4.81 50-5.6 49.9-6.4 49.97-7.45L49.97-7.45Q50-7.89 50.14-8.06L50.14-8.06Q50.31-8.25 50.7-8.35L50.7-8.35Q51.41-8.52 52.55-8.65 53.68-8.79 54.17-8.79L54.17-8.79Q54.68-8.79 55-8.59 55.32-8.4 55.76-7.93L55.76-7.93Q56.25-7.42 57.44-6.63 58.64-5.83 61.13-5.83L61.13-5.83Q63.52-5.83 64.74-6.84 65.96-7.84 65.96-9.62L65.96-9.62Q65.96-10.57 65.39-11.41 64.81-12.26 63.3-13.1 61.79-13.94 58.98-14.87L58.98-14.87Q54.34-16.43 52.29-18.75 50.24-21.07 50.24-25.2L50.24-25.2Q50.24-28.61 51.9-30.91 53.56-33.2 56.49-34.38 59.42-35.55 63.25-35.55L63.25-35.55Q66.21-35.55 68.15-34.85 70.09-34.16 71.16-33.29 72.24-32.42 72.55-31.88L72.55-31.88Q72.75-31.57 72.81-31.41 72.87-31.25 72.9-30.98L72.9-30.98Q72.97-30.22 72.94-29.3 72.92-28.37 72.77-27.2L72.77-27.2Q72.7-26.81 72.5-26.66L72.5-26.66Q72.33-26.54 71.97-26.54L71.97-26.54Q69.6-26.49 68.31-26.78L68.31-26.78Q67.79-26.9 67.62-27.03 67.45-27.15 67.18-27.42L67.18-27.42Q66.79-27.88 65.95-28.5 65.11-29.13 63.25-29.13L63.25-29.13Q60.69-29.13 59.61-27.97 58.54-26.81 58.54-25.37L58.54-25.37Q58.54-23.66 60.13-22.69 61.71-21.73 65.13-20.51L65.13-20.51Q67.99-19.51 70.04-18.33 72.09-17.16 73.18-15.33 74.26-13.5 74.26-10.5L74.26-10.5Q74.26-6.76 72.54-4.3 70.82-1.83 67.85-0.62 64.89 0.59 61.13 0.59ZM95.94-12.45L95.94-1.29Q95.94-0.56 95.63-0.28 95.33 0 94.6 0L94.6 0 89.4 0Q88.66 0 88.36-0.28 88.05-0.56 88.05-1.29L88.05-1.29 88.05-12.3 83.2-17.94Q81.46-19.97 80.28-21.58 79.09-23.19 78.51-24.91 77.92-26.64 77.92-28.96L77.92-28.96 77.92-31.1Q77.92-31.81 78.17-32.18L78.17-32.18Q79.26-33.79 81.24-35.57L81.24-35.57Q81.61-35.86 81.9-35.86L81.9-35.86Q82.19-35.86 82.51-35.57L82.51-35.57Q83.59-34.64 84.32-33.8 85.05-32.96 85.59-32.18L85.59-32.18Q85.83-31.79 85.83-31.1L85.83-31.1 85.83-28.98Q85.83-27.39 86.76-25.46 87.69-23.54 89.89-21.22L89.89-21.22 92.25-18.73 94.57-21.22Q96.55-23.34 97.59-25.27 98.63-27.2 98.63-28.96L98.63-28.96 98.63-31.1Q98.63-31.81 98.87-32.18L98.87-32.18Q99.92-33.76 101.85-35.57L101.85-35.57Q102.21-35.86 102.46-35.86L102.46-35.86Q102.75-35.86 103.07-35.57L103.07-35.57Q104.09-34.64 104.81-33.8 105.53-32.96 106.05-32.18L106.05-32.18Q106.29-31.79 106.29-31.1L106.29-31.1 106.29-28.96Q106.29-26.27 105.12-23.82 103.95-21.36 101.14-18.24L101.14-18.24 95.94-12.45ZM121.13 0.59L121.13 0.59Q118.03 0.59 115.99 0.02 113.95-0.54 112.72-1.38 111.49-2.22 110.83-3.05L110.83-3.05Q110.61-3.37 110.44-3.66 110.27-3.96 110.2-4.32L110.2-4.32Q110.1-4.81 110-5.6 109.9-6.4 109.98-7.45L109.98-7.45Q110-7.89 110.15-8.06L110.15-8.06Q110.32-8.25 110.71-8.35L110.71-8.35Q111.42-8.52 112.55-8.65 113.69-8.79 114.17-8.79L114.17-8.79Q114.69-8.79 115-8.59 115.32-8.4 115.76-7.93L115.76-7.93Q116.25-7.42 117.45-6.63 118.64-5.83 121.13-5.83L121.13-5.83Q123.53-5.83 124.75-6.84 125.97-7.84 125.97-9.62L125.97-9.62Q125.97-10.57 125.39-11.41 124.82-12.26 123.31-13.1 121.79-13.94 118.98-14.87L118.98-14.87Q114.35-16.43 112.29-18.75 110.24-21.07 110.24-25.2L110.24-25.2Q110.24-28.61 111.9-30.91 113.56-33.2 116.49-34.38 119.42-35.55 123.26-35.55L123.26-35.55Q126.21-35.55 128.15-34.85 130.09-34.16 131.17-33.29 132.24-32.42 132.56-31.88L132.56-31.88Q132.75-31.57 132.81-31.41 132.88-31.25 132.9-30.98L132.9-30.98Q132.97-30.22 132.95-29.3 132.92-28.37 132.78-27.2L132.78-27.2Q132.7-26.81 132.51-26.66L132.51-26.66Q132.34-26.54 131.97-26.54L131.97-26.54Q129.6-26.49 128.31-26.78L128.31-26.78Q127.8-26.9 127.63-27.03 127.46-27.15 127.19-27.42L127.19-27.42Q126.8-27.88 125.95-28.5 125.11-29.13 123.26-29.13L123.26-29.13Q120.69-29.13 119.62-27.97 118.54-26.81 118.54-25.37L118.54-25.37Q118.54-23.66 120.13-22.69 121.72-21.73 125.14-20.51L125.14-20.51Q127.99-19.51 130.04-18.33 132.09-17.16 133.18-15.33 134.27-13.5 134.27-10.5L134.27-10.5Q134.27-6.76 132.55-4.3 130.82-1.83 127.86-0.62 124.89 0.59 121.13 0.59ZM155.51-28.59L155.51-1.29Q155.51-0.56 155.2-0.28 154.89 0 154.16 0L154.16 0 148.96 0Q148.23 0 147.92-0.28 147.62-0.56 147.62-1.29L147.62-1.29 147.62-28.59 140.34-28.59Q139.76-28.59 139.47-28.78L139.47-28.78Q138.83-29.22 138.16-29.83 137.49-30.44 136.71-31.3L136.71-31.3Q136.46-31.62 136.46-31.81L136.46-31.81Q136.46-32.03 136.71-32.3L136.71-32.3Q137.49-33.15 138.16-33.76 138.83-34.38 139.47-34.81L139.47-34.81Q139.81-35.01 140.34-35.01L140.34-35.01 162.8-35.01Q163.39-35.01 163.68-34.81L163.68-34.81Q164.32-34.38 165-33.76 165.69-33.15 166.44-32.3L166.44-32.3Q166.69-31.98 166.69-31.79L166.69-31.79Q166.69-31.57 166.44-31.3L166.44-31.3Q165.69-30.44 165-29.83 164.32-29.22 163.68-28.78L163.68-28.78Q163.34-28.59 162.8-28.59L162.8-28.59 155.51-28.59ZM188.9 0L176.62 0Q174.11 0 172.8-0.63 171.49-1.27 171.04-2.71 170.59-4.15 170.59-6.54L170.59-6.54 170.59-28.47Q170.59-30.91 171.04-32.34 171.49-33.76 172.8-34.39 174.11-35.01 176.62-35.01L176.62-35.01 188.1-35.01Q188.68-35.01 188.97-34.81L188.97-34.81Q189.61-34.38 190.29-33.76 190.98-33.15 191.73-32.3L191.73-32.3Q191.98-31.98 191.98-31.79L191.98-31.79Q191.98-31.57 191.73-31.3L191.73-31.3Q190.98-30.44 190.29-29.83 189.61-29.22 188.97-28.78L188.97-28.78Q188.63-28.59 188.1-28.59L188.1-28.59 181.26-28.59Q179.65-28.59 179.06-27.91 178.48-27.22 178.48-25.56L178.48-25.56 178.48-20.83 187.24-20.83Q187.83-20.83 188.12-20.63L188.12-20.63Q188.75-20.19 189.44-19.58 190.12-18.97 190.88-18.12L190.88-18.12Q191.12-17.8 191.12-17.6L191.12-17.6Q191.12-17.38 190.88-17.11L190.88-17.11Q190.12-16.26 189.44-15.65 188.75-15.04 188.12-14.6L188.12-14.6Q187.78-14.4 187.24-14.4L187.24-14.4 178.48-14.4 178.48-9.47Q178.48-7.84 179.06-7.13 179.65-6.42 181.26-6.42L181.26-6.42 188.9-6.42Q189.49-6.42 189.78-6.23L189.78-6.23Q190.41-5.79 191.1-5.18 191.78-4.57 192.54-3.71L192.54-3.71Q192.78-3.39 192.78-3.2L192.78-3.2Q192.78-2.98 192.54-2.71L192.54-2.71Q191.78-1.86 191.1-1.25 190.41-0.63 189.78-0.2L189.78-0.2Q189.44 0 188.9 0L188.9 0ZM217.54-14.01L217.73-14.01Q218.07-15.33 218.48-16.61 218.88-17.9 219.46-19.48L219.46-19.48Q219.98-20.9 220.71-22.74 221.44-24.58 222.26-26.49 223.08-28.39 223.86-30.03 224.64-31.67 225.28-32.64L225.28-32.64Q226.06-33.84 226.97-34.42 227.89-35.01 229.67-35.01L229.67-35.01 232.87-35.01Q234.14-35.01 235-34.63 235.87-34.25 236.24-32.84L236.24-32.84Q236.51-31.79 236.75-29.76 236.99-27.73 237.17-24.15 237.34-20.56 237.43-14.93 237.53-9.3 237.53-1.03L237.53-1.03Q237.53-0.59 237.24-0.29 236.95 0 236.53 0L236.53 0 230.96 0Q230.55 0 230.26-0.29 229.96-0.59 229.96-1.05L229.96-1.05Q229.96-7.5 229.96-11.99 229.96-16.48 229.94-19.43 229.91-22.39 229.88-24.13 229.84-25.88 229.77-26.83L229.77-26.83 229.62-26.83Q228.33-23.85 226.86-20.2 225.4-16.55 224.01-12.68 222.61-8.81 221.52-5.13L221.52-5.13Q221.2-4.03 220.72-3.6 220.25-3.17 218.56-3.17L218.56-3.17 215.75-3.17Q214.31-3.17 213.84-3.54 213.36-3.91 213.02-5.13L213.02-5.13Q212.21-7.91 211.24-11.01 210.26-14.11 209.22-17.1 208.19-20.09 207.22-22.62 206.26-25.15 205.5-26.83L205.5-26.83 205.35-26.83Q205.16-23.95 205.01-19.82 204.87-15.7 204.78-10.86 204.69-6.03 204.67-1L204.67-1Q204.67-0.56 204.38-0.28 204.08 0 203.67 0L203.67 0 198.66 0Q198.25 0 197.96-0.29 197.66-0.59 197.66-1.05L197.66-1.05Q197.69-14.06 198.19-21.83 198.69-29.59 199.27-32.23L199.27-32.23Q199.67-33.96 200.65-34.48 201.64-35.01 202.91-35.01L202.91-35.01 206.87-35.01Q208.21-35.01 208.83-34.53 209.46-34.06 210.36-32.69L210.36-32.69Q210.9-31.88 211.64-30.27 212.38-28.66 213.19-26.7 214-24.73 214.72-22.81 215.44-20.9 215.9-19.48L215.9-19.48Q216.39-18.04 216.8-16.69 217.22-15.33 217.54-14.01L217.54-14.01Z" opacity="1" transform="matrix(1,0,0,1,0,0)" fill="black" class="slogan-text-1" id="SvgjsPath4578" stroke-width="5" stroke="black" stroke-linejoin="round"></path></svg></g></svg></g></svg></g></svg></g><g></g></svg></g></svg></g></svg></g></mask><g mask="url(#9ef6431a-68f3-4931-9da7-7bed8727ad83)"><g><path d="M258.71 247.2h-121.9v-247.2h121.9v28.003h-90.654v52.762h71.431v28.003h-71.431v110.429h90.654z" fill="#091627" fill-rule="nonzero" stroke="none" stroke-width="1" stroke-linecap="butt" stroke-linejoin="miter" stroke-miterlimit="10" stroke-dasharray="" stroke-dashoffset="0" font-family="none" font-weight="none" font-size="none" text-anchor="none" style="mix-blend-mode: normal" data-fill-palette-color="tertiary"></path></g></g><g transform="matrix(1,0,0,1,79.37934533410262,37.08)"><svg viewBox="0 0 236.76130933179473 173.04" height="173.04" width="236.76130933179473"><g><svg viewBox="0 0 236.76130933179473 173.04" height="173.04" width="236.76130933179473"><g><svg viewBox="0 0 345.91789931034486 252.81847555918958" height="173.04" width="236.76130933179473"><g><svg viewBox="0 0 345.91789931034486 252.81847555918958" height="252.81847555918958" width="345.91789931034486"><g id="textblocktransform"><svg viewBox="0 0 345.91789931034486 252.81847555918958" height="252.81847555918958" width="345.91789931034486" id="textblock"><g><svg viewBox="0 0 345.91789931034486 171.9706128" height="171.9706128" width="345.91789931034486"><g transform="matrix(1,0,0,1,0,0)"><svg width="345.91789931034486" viewBox="1.38 -34.25 73.91000000000001 37.25" height="171.9706128" data-palette-color="#091627"><path d="M19.79 0L4.38 0 4.38-31.25 19.79-31.25 19.79-27.71 8.33-27.71 8.33-21.04 17.36-21.04 17.36-17.5 8.33-17.5 8.33-3.54 19.79-3.54 19.79 0ZM30.31 0L26.35 0 26.35-31.25 34.2-31.25Q37.15-31.25 39.27-30.07 41.39-28.89 42.55-26.96 43.71-25.03 43.71-22.74L43.71-22.74Q43.71-20.17 42.25-18.13 40.8-16.08 38.26-15.1L38.26-15.1 48.75 0 44.13 0 34.2-14.38 30.31-14.38 30.31 0ZM30.31-27.71L30.31-17.71 34.2-17.71Q36.21-17.71 37.48-18.45 38.75-19.2 39.36-20.36 39.96-21.53 39.96-22.74L39.96-22.74Q39.96-24.93 38.38-26.32 36.8-27.71 34.2-27.71L34.2-27.71 30.31-27.71ZM57.29 0L53.33 0 53.33-31.25 61.07-31.25Q64.16-31.25 66.3-30.31 68.43-29.38 69.75-27.86 71.07-26.35 71.68-24.58 72.29-22.81 72.29-21.11L72.29-21.11Q72.29-19.44 71.7-17.67 71.11-15.9 69.79-14.38 68.47-12.85 66.31-11.91 64.16-10.97 61.07-10.97L61.07-10.97 57.29-10.97 57.29 0ZM57.29-27.71L57.29-14.51 60.86-14.51Q63.68-14.51 65.31-15.5 66.94-16.49 67.63-18 68.33-19.51 68.33-21.11L68.33-21.11Q68.33-22.64 67.65-24.17 66.97-25.69 65.36-26.7 63.75-27.71 60.86-27.71L60.86-27.71 57.29-27.71Z" opacity="1" transform="matrix(1,0,0,1,0,0)" fill="#091627" class="wordmark-text-0" data-fill-palette-color="primary" id="text-0"></path></svg></g></svg></g><g transform="matrix(1,0,0,1,2.5,193.6039228881269)"><svg viewBox="0 0 340.91789931034486 59.214552671062684" height="59.214552671062684" width="340.91789931034486"><g transform="matrix(1,0,0,1,0,0)"><svg width="340.91789931034486" viewBox="0.9100000000000001 -38.86 239.62 42.45" height="59.214552671062684" data-palette-color="#091627"><path d="M22.22 0L9.94 0Q7.42 0 6.12-0.63 4.81-1.27 4.36-2.71 3.91-4.15 3.91-6.54L3.91-6.54 3.91-28.47Q3.91-30.91 4.36-32.34 4.81-33.76 6.12-34.39 7.42-35.01 9.94-35.01L9.94-35.01 21.41-35.01Q22-35.01 22.29-34.81L22.29-34.81Q22.92-34.38 23.61-33.76 24.29-33.15 25.05-32.3L25.05-32.3Q25.29-31.98 25.29-31.79L25.29-31.79Q25.29-31.57 25.05-31.3L25.05-31.3Q24.29-30.44 23.61-29.83 22.92-29.22 22.29-28.78L22.29-28.78Q21.95-28.59 21.41-28.59L21.41-28.59 14.58-28.59Q12.96-28.59 12.38-27.91 11.79-27.22 11.79-25.56L11.79-25.56 11.79-20.83 20.56-20.83Q21.14-20.83 21.44-20.63L21.44-20.63Q22.07-20.19 22.75-19.58 23.44-18.97 24.19-18.12L24.19-18.12Q24.44-17.8 24.44-17.6L24.44-17.6Q24.44-17.38 24.19-17.11L24.19-17.11Q23.44-16.26 22.75-15.65 22.07-15.04 21.44-14.6L21.44-14.6Q21.09-14.4 20.56-14.4L20.56-14.4 11.79-14.4 11.79-9.47Q11.79-7.84 12.38-7.13 12.96-6.42 14.58-6.42L14.58-6.42 22.22-6.42Q22.8-6.42 23.1-6.23L23.1-6.23Q23.73-5.79 24.41-5.18 25.1-4.57 25.85-3.71L25.85-3.71Q26.1-3.39 26.1-3.2L26.1-3.2Q26.1-2.98 25.85-2.71L25.85-2.71Q25.1-1.86 24.41-1.25 23.73-0.63 23.1-0.2L23.1-0.2Q22.75 0 22.22 0L22.22 0ZM43.45-10.4L31.61-10.4Q30.86-10.4 30.86-11.16L30.86-11.16 30.86-15.53Q30.86-16.28 31.61-16.28L31.61-16.28 43.45-16.28Q44.21-16.28 44.21-15.53L44.21-15.53 44.21-11.16Q44.21-10.4 43.45-10.4L43.45-10.4ZM61.13 0.59L61.13 0.59Q58.03 0.59 55.99 0.02 53.95-0.54 52.72-1.38 51.48-2.22 50.83-3.05L50.83-3.05Q50.61-3.37 50.43-3.66 50.26-3.96 50.19-4.32L50.19-4.32Q50.09-4.81 50-5.6 49.9-6.4 49.97-7.45L49.97-7.45Q50-7.89 50.14-8.06L50.14-8.06Q50.31-8.25 50.7-8.35L50.7-8.35Q51.41-8.52 52.55-8.65 53.68-8.79 54.17-8.79L54.17-8.79Q54.68-8.79 55-8.59 55.32-8.4 55.76-7.93L55.76-7.93Q56.25-7.42 57.44-6.63 58.64-5.83 61.13-5.83L61.13-5.83Q63.52-5.83 64.74-6.84 65.96-7.84 65.96-9.62L65.96-9.62Q65.96-10.57 65.39-11.41 64.81-12.26 63.3-13.1 61.79-13.94 58.98-14.87L58.98-14.87Q54.34-16.43 52.29-18.75 50.24-21.07 50.24-25.2L50.24-25.2Q50.24-28.61 51.9-30.91 53.56-33.2 56.49-34.38 59.42-35.55 63.25-35.55L63.25-35.55Q66.21-35.55 68.15-34.85 70.09-34.16 71.16-33.29 72.24-32.42 72.55-31.88L72.55-31.88Q72.75-31.57 72.81-31.41 72.87-31.25 72.9-30.98L72.9-30.98Q72.97-30.22 72.94-29.3 72.92-28.37 72.77-27.2L72.77-27.2Q72.7-26.81 72.5-26.66L72.5-26.66Q72.33-26.54 71.97-26.54L71.97-26.54Q69.6-26.49 68.31-26.78L68.31-26.78Q67.79-26.9 67.62-27.03 67.45-27.15 67.18-27.42L67.18-27.42Q66.79-27.88 65.95-28.5 65.11-29.13 63.25-29.13L63.25-29.13Q60.69-29.13 59.61-27.97 58.54-26.81 58.54-25.37L58.54-25.37Q58.54-23.66 60.13-22.69 61.71-21.73 65.13-20.51L65.13-20.51Q67.99-19.51 70.04-18.33 72.09-17.16 73.18-15.33 74.26-13.5 74.26-10.5L74.26-10.5Q74.26-6.76 72.54-4.3 70.82-1.83 67.85-0.62 64.89 0.59 61.13 0.59ZM95.94-12.45L95.94-1.29Q95.94-0.56 95.63-0.28 95.33 0 94.6 0L94.6 0 89.4 0Q88.66 0 88.36-0.28 88.05-0.56 88.05-1.29L88.05-1.29 88.05-12.3 83.2-17.94Q81.46-19.97 80.28-21.58 79.09-23.19 78.51-24.91 77.92-26.64 77.92-28.96L77.92-28.96 77.92-31.1Q77.92-31.81 78.17-32.18L78.17-32.18Q79.26-33.79 81.24-35.57L81.24-35.57Q81.61-35.86 81.9-35.86L81.9-35.86Q82.19-35.86 82.51-35.57L82.51-35.57Q83.59-34.64 84.32-33.8 85.05-32.96 85.59-32.18L85.59-32.18Q85.83-31.79 85.83-31.1L85.83-31.1 85.83-28.98Q85.83-27.39 86.76-25.46 87.69-23.54 89.89-21.22L89.89-21.22 92.25-18.73 94.57-21.22Q96.55-23.34 97.59-25.27 98.63-27.2 98.63-28.96L98.63-28.96 98.63-31.1Q98.63-31.81 98.87-32.18L98.87-32.18Q99.92-33.76 101.85-35.57L101.85-35.57Q102.21-35.86 102.46-35.86L102.46-35.86Q102.75-35.86 103.07-35.57L103.07-35.57Q104.09-34.64 104.81-33.8 105.53-32.96 106.05-32.18L106.05-32.18Q106.29-31.79 106.29-31.1L106.29-31.1 106.29-28.96Q106.29-26.27 105.12-23.82 103.95-21.36 101.14-18.24L101.14-18.24 95.94-12.45ZM121.13 0.59L121.13 0.59Q118.03 0.59 115.99 0.02 113.95-0.54 112.72-1.38 111.49-2.22 110.83-3.05L110.83-3.05Q110.61-3.37 110.44-3.66 110.27-3.96 110.2-4.32L110.2-4.32Q110.1-4.81 110-5.6 109.9-6.4 109.98-7.45L109.98-7.45Q110-7.89 110.15-8.06L110.15-8.06Q110.32-8.25 110.71-8.35L110.71-8.35Q111.42-8.52 112.55-8.65 113.69-8.79 114.17-8.79L114.17-8.79Q114.69-8.79 115-8.59 115.32-8.4 115.76-7.93L115.76-7.93Q116.25-7.42 117.45-6.63 118.64-5.83 121.13-5.83L121.13-5.83Q123.53-5.83 124.75-6.84 125.97-7.84 125.97-9.62L125.97-9.62Q125.97-10.57 125.39-11.41 124.82-12.26 123.31-13.1 121.79-13.94 118.98-14.87L118.98-14.87Q114.35-16.43 112.29-18.75 110.24-21.07 110.24-25.2L110.24-25.2Q110.24-28.61 111.9-30.91 113.56-33.2 116.49-34.38 119.42-35.55 123.26-35.55L123.26-35.55Q126.21-35.55 128.15-34.85 130.09-34.16 131.17-33.29 132.24-32.42 132.56-31.88L132.56-31.88Q132.75-31.57 132.81-31.41 132.88-31.25 132.9-30.98L132.9-30.98Q132.97-30.22 132.95-29.3 132.92-28.37 132.78-27.2L132.78-27.2Q132.7-26.81 132.51-26.66L132.51-26.66Q132.34-26.54 131.97-26.54L131.97-26.54Q129.6-26.49 128.31-26.78L128.31-26.78Q127.8-26.9 127.63-27.03 127.46-27.15 127.19-27.42L127.19-27.42Q126.8-27.88 125.95-28.5 125.11-29.13 123.26-29.13L123.26-29.13Q120.69-29.13 119.62-27.97 118.54-26.81 118.54-25.37L118.54-25.37Q118.54-23.66 120.13-22.69 121.72-21.73 125.14-20.51L125.14-20.51Q127.99-19.51 130.04-18.33 132.09-17.16 133.18-15.33 134.27-13.5 134.27-10.5L134.27-10.5Q134.27-6.76 132.55-4.3 130.82-1.83 127.86-0.62 124.89 0.59 121.13 0.59ZM155.51-28.59L155.51-1.29Q155.51-0.56 155.2-0.28 154.89 0 154.16 0L154.16 0 148.96 0Q148.23 0 147.92-0.28 147.62-0.56 147.62-1.29L147.62-1.29 147.62-28.59 140.34-28.59Q139.76-28.59 139.47-28.78L139.47-28.78Q138.83-29.22 138.16-29.83 137.49-30.44 136.71-31.3L136.71-31.3Q136.46-31.62 136.46-31.81L136.46-31.81Q136.46-32.03 136.71-32.3L136.71-32.3Q137.49-33.15 138.16-33.76 138.83-34.38 139.47-34.81L139.47-34.81Q139.81-35.01 140.34-35.01L140.34-35.01 162.8-35.01Q163.39-35.01 163.68-34.81L163.68-34.81Q164.32-34.38 165-33.76 165.69-33.15 166.44-32.3L166.44-32.3Q166.69-31.98 166.69-31.79L166.69-31.79Q166.69-31.57 166.44-31.3L166.44-31.3Q165.69-30.44 165-29.83 164.32-29.22 163.68-28.78L163.68-28.78Q163.34-28.59 162.8-28.59L162.8-28.59 155.51-28.59ZM188.9 0L176.62 0Q174.11 0 172.8-0.63 171.49-1.27 171.04-2.71 170.59-4.15 170.59-6.54L170.59-6.54 170.59-28.47Q170.59-30.91 171.04-32.34 171.49-33.76 172.8-34.39 174.11-35.01 176.62-35.01L176.62-35.01 188.1-35.01Q188.68-35.01 188.97-34.81L188.97-34.81Q189.61-34.38 190.29-33.76 190.98-33.15 191.73-32.3L191.73-32.3Q191.98-31.98 191.98-31.79L191.98-31.79Q191.98-31.57 191.73-31.3L191.73-31.3Q190.98-30.44 190.29-29.83 189.61-29.22 188.97-28.78L188.97-28.78Q188.63-28.59 188.1-28.59L188.1-28.59 181.26-28.59Q179.65-28.59 179.06-27.91 178.48-27.22 178.48-25.56L178.48-25.56 178.48-20.83 187.24-20.83Q187.83-20.83 188.12-20.63L188.12-20.63Q188.75-20.19 189.44-19.58 190.12-18.97 190.88-18.12L190.88-18.12Q191.12-17.8 191.12-17.6L191.12-17.6Q191.12-17.38 190.88-17.11L190.88-17.11Q190.12-16.26 189.44-15.65 188.75-15.04 188.12-14.6L188.12-14.6Q187.78-14.4 187.24-14.4L187.24-14.4 178.48-14.4 178.48-9.47Q178.48-7.84 179.06-7.13 179.65-6.42 181.26-6.42L181.26-6.42 188.9-6.42Q189.49-6.42 189.78-6.23L189.78-6.23Q190.41-5.79 191.1-5.18 191.78-4.57 192.54-3.71L192.54-3.71Q192.78-3.39 192.78-3.2L192.78-3.2Q192.78-2.98 192.54-2.71L192.54-2.71Q191.78-1.86 191.1-1.25 190.41-0.63 189.78-0.2L189.78-0.2Q189.44 0 188.9 0L188.9 0ZM217.54-14.01L217.73-14.01Q218.07-15.33 218.48-16.61 218.88-17.9 219.46-19.48L219.46-19.48Q219.98-20.9 220.71-22.74 221.44-24.58 222.26-26.49 223.08-28.39 223.86-30.03 224.64-31.67 225.28-32.64L225.28-32.64Q226.06-33.84 226.97-34.42 227.89-35.01 229.67-35.01L229.67-35.01 232.87-35.01Q234.14-35.01 235-34.63 235.87-34.25 236.24-32.84L236.24-32.84Q236.51-31.79 236.75-29.76 236.99-27.73 237.17-24.15 237.34-20.56 237.43-14.93 237.53-9.3 237.53-1.03L237.53-1.03Q237.53-0.59 237.24-0.29 236.95 0 236.53 0L236.53 0 230.96 0Q230.55 0 230.26-0.29 229.96-0.59 229.96-1.05L229.96-1.05Q229.96-7.5 229.96-11.99 229.96-16.48 229.94-19.43 229.91-22.39 229.88-24.13 229.84-25.88 229.77-26.83L229.77-26.83 229.62-26.83Q228.33-23.85 226.86-20.2 225.4-16.55 224.01-12.68 222.61-8.81 221.52-5.13L221.52-5.13Q221.2-4.03 220.72-3.6 220.25-3.17 218.56-3.17L218.56-3.17 215.75-3.17Q214.31-3.17 213.84-3.54 213.36-3.91 213.02-5.13L213.02-5.13Q212.21-7.91 211.24-11.01 210.26-14.11 209.22-17.1 208.19-20.09 207.22-22.62 206.26-25.15 205.5-26.83L205.5-26.83 205.35-26.83Q205.16-23.95 205.01-19.82 204.87-15.7 204.78-10.86 204.69-6.03 204.67-1L204.67-1Q204.67-0.56 204.38-0.28 204.08 0 203.67 0L203.67 0 198.66 0Q198.25 0 197.96-0.29 197.66-0.59 197.66-1.05L197.66-1.05Q197.69-14.06 198.19-21.83 198.69-29.59 199.27-32.23L199.27-32.23Q199.67-33.96 200.65-34.48 201.64-35.01 202.91-35.01L202.91-35.01 206.87-35.01Q208.21-35.01 208.83-34.53 209.46-34.06 210.36-32.69L210.36-32.69Q210.9-31.88 211.64-30.27 212.38-28.66 213.19-26.7 214-24.73 214.72-22.81 215.44-20.9 215.9-19.48L215.9-19.48Q216.39-18.04 216.8-16.69 217.22-15.33 217.54-14.01L217.54-14.01Z" opacity="1" transform="matrix(1,0,0,1,0,0)" fill="#091627" class="slogan-text-1" data-fill-palette-color="secondary" id="text-1"></path></svg></g></svg></g></svg></g></svg></g><g></g></svg></g></svg></g></svg></g></svg></g><defs></defs></svg><rect width="395.52" height="247.2" fill="none" stroke="none" visibility="hidden"></rect></g></svg></g></svg>